# Dwarven Stronghold Asset: bridge_ramp
# Generated by dwarven_stronghold_gen.py
# Vertices: 22, Faces: 17

o bridge_ramp

v -2.000000 0.000000 -3.000000
v 2.000000 0.000000 -3.000000
v 2.000000 0.000000 3.000000
v -2.000000 0.000000 3.000000
v 0.000000 1.000000 -3.000000
v 0.000000 1.000000 3.000000
v -2.000000 0.500000 -3.000000
v -1.800000 0.500000 -3.000000
v -1.800000 1.000000 -3.000000
v -2.000000 1.000000 -3.000000
v -2.000000 0.500000 3.000000
v -1.800000 0.500000 3.000000
v -1.800000 1.000000 3.000000
v -2.000000 1.000000 3.000000
v 1.800000 0.500000 -3.000000
v 2.000000 0.500000 -3.000000
v 2.000000 1.000000 -3.000000
v 1.800000 1.000000 -3.000000
v 1.800000 0.500000 3.000000
v 2.000000 0.500000 3.000000
v 2.000000 1.000000 3.000000
v 1.800000 1.000000 3.000000

vn 0.000000 -1.000000 0.000000
vn -0.970143 0.242536 0.000000
vn 0.970143 0.242536 0.000000
vn 0.000000 0.000000 -1.000000
vn 0.000000 0.000000 1.000000
vn 0.000000 0.000000 1.000000
vn 0.000000 0.000000 -1.000000
vn 1.000000 0.000000 0.000000
vn -1.000000 0.000000 0.000000
vn 0.000000 1.000000 0.000000
vn 0.000000 -1.000000 0.000000
vn 0.000000 0.000000 1.000000
vn 0.000000 0.000000 -1.000000
vn 1.000000 0.000000 0.000000
vn -1.000000 0.000000 0.000000
vn 0.000000 1.000000 0.000000
vn 0.000000 -1.000000 0.000000

f 1//1 2//1 3//1 4//1
f 1//2 4//2 6//2 5//2
f 2//3 5//3 6//3 3//3
f 1//4 5//4 2//4
f 4//5 3//5 6//5
f 11//6 12//6 13//6 14//6
f 8//7 7//7 10//7 9//7
f 12//8 8//8 9//8 13//8
f 7//9 11//9 14//9 10//9
f 14//10 13//10 9//10 10//10
f 7//11 8//11 12//11 11//11
f 19//12 20//12 21//12 22//12
f 16//13 15//13 18//13 17//13
f 20//14 16//14 17//14 21//14
f 15//15 19//15 22//15 18//15
f 22//16 21//16 17//16 18//16
f 15//17 16//17 20//17 19//17
