# Dwarven Stronghold Asset: bridge_wide
# Generated by dwarven_stronghold_gen.py
# Vertices: 24, Faces: 18

o bridge_wide

v -3.000000 -0.200000 -4.000000
v 3.000000 -0.200000 -4.000000
v 3.000000 0.200000 -4.000000
v -3.000000 0.200000 -4.000000
v -3.000000 -0.200000 4.000000
v 3.000000 -0.200000 4.000000
v 3.000000 0.200000 4.000000
v -3.000000 0.200000 4.000000
v -3.000000 0.200000 -4.000000
v -2.800000 0.200000 -4.000000
v -2.800000 0.800000 -4.000000
v -3.000000 0.800000 -4.000000
v -3.000000 0.200000 4.000000
v -2.800000 0.200000 4.000000
v -2.800000 0.800000 4.000000
v -3.000000 0.800000 4.000000
v 2.800000 0.200000 -4.000000
v 3.000000 0.200000 -4.000000
v 3.000000 0.800000 -4.000000
v 2.800000 0.800000 -4.000000
v 2.800000 0.200000 4.000000
v 3.000000 0.200000 4.000000
v 3.000000 0.800000 4.000000
v 2.800000 0.800000 4.000000

vn 0.000000 0.000000 1.000000
vn 0.000000 0.000000 -1.000000
vn 1.000000 0.000000 0.000000
vn -1.000000 0.000000 0.000000
vn 0.000000 1.000000 0.000000
vn 0.000000 -1.000000 0.000000
vn 0.000000 0.000000 1.000000
vn 0.000000 0.000000 -1.000000
vn 1.000000 0.000000 0.000000
vn -1.000000 0.000000 0.000000
vn 0.000000 1.000000 0.000000
vn 0.000000 -1.000000 0.000000
vn 0.000000 0.000000 1.000000
vn 0.000000 0.000000 -1.000000
vn 1.000000 0.000000 0.000000
vn -1.000000 0.000000 0.000000
vn 0.000000 1.000000 0.000000
vn 0.000000 -1.000000 0.000000

f 5//1 6//1 7//1 8//1
f 2//2 1//2 4//2 3//2
f 6//3 2//3 3//3 7//3
f 1//4 5//4 8//4 4//4
f 8//5 7//5 3//5 4//5
f 1//6 2//6 6//6 5//6
f 13//7 14//7 15//7 16//7
f 10//8 9//8 12//8 11//8
f 14//9 10//9 11//9 15//9
f 9//10 13//10 16//10 12//10
f 16//11 15//11 11//11 12//11
f 9//12 10//12 14//12 13//12
f 21//13 22//13 23//13 24//13
f 18//14 17//14 20//14 19//14
f 22//15 18//15 19//15 23//15
f 17//16 21//16 24//16 20//16
f 24//17 23//17 19//17 20//17
f 17//18 18//18 22//18 21//18
