# Dwarven Stronghold Asset: rack_weapons
# Generated by dwarven_stronghold_gen.py
# Vertices: 40, Faces: 30

o rack_weapons

v -0.900000 0.000000 -0.250000
v 0.900000 0.000000 -0.250000
v 0.900000 0.200000 -0.250000
v -0.900000 0.200000 -0.250000
v -0.900000 0.000000 0.250000
v 0.900000 0.000000 0.250000
v 0.900000 0.200000 0.250000
v -0.900000 0.200000 0.250000
v -0.850000 0.100000 -0.050000
v -0.750000 0.100000 -0.050000
v -0.750000 1.400000 -0.050000
v -0.850000 1.400000 -0.050000
v -0.850000 0.100000 0.050000
v -0.750000 0.100000 0.050000
v -0.750000 1.400000 0.050000
v -0.850000 1.400000 0.050000
v 0.750000 0.100000 -0.050000
v 0.850000 0.100000 -0.050000
v 0.850000 1.400000 -0.050000
v 0.750000 1.400000 -0.050000
v 0.750000 0.100000 0.050000
v 0.850000 0.100000 0.050000
v 0.850000 1.400000 0.050000
v 0.750000 1.400000 0.050000
v -0.850000 0.460000 0.150000
v 0.850000 0.460000 0.150000
v 0.850000 0.540000 0.150000
v -0.850000 0.540000 0.150000
v -0.850000 0.460000 0.250000
v 0.850000 0.460000 0.250000
v 0.850000 0.540000 0.250000
v -0.850000 0.540000 0.250000
v -0.850000 1.160000 0.150000
v 0.850000 1.160000 0.150000
v 0.850000 1.240000 0.150000
v -0.850000 1.240000 0.150000
v -0.850000 1.160000 0.250000
v 0.850000 1.160000 0.250000
v 0.850000 1.240000 0.250000
v -0.850000 1.240000 0.250000

vn 0.000000 0.000000 1.000000
vn 0.000000 0.000000 -1.000000
vn 1.000000 0.000000 0.000000
vn -1.000000 0.000000 0.000000
vn 0.000000 1.000000 0.000000
vn 0.000000 -1.000000 0.000000
vn 0.000000 0.000000 1.000000
vn 0.000000 0.000000 -1.000000
vn 1.000000 0.000000 0.000000
vn -1.000000 0.000000 0.000000
vn 0.000000 1.000000 0.000000
vn 0.000000 -1.000000 0.000000
vn 0.000000 0.000000 1.000000
vn 0.000000 0.000000 -1.000000
vn 1.000000 0.000000 0.000000
vn -1.000000 0.000000 0.000000
vn 0.000000 1.000000 0.000000
vn 0.000000 -1.000000 0.000000
vn 0.000000 0.000000 1.000000
vn 0.000000 0.000000 -1.000000
vn 1.000000 0.000000 0.000000
vn -1.000000 0.000000 0.000000
vn 0.000000 1.000000 0.000000
vn 0.000000 -1.000000 0.000000
vn 0.000000 0.000000 1.000000
vn 0.000000 0.000000 -1.000000
vn 1.000000 0.000000 0.000000
vn -1.000000 0.000000 0.000000
vn 0.000000 1.000000 0.000000
vn 0.000000 -1.000000 0.000000

f 5//1 6//1 7//1 8//1
f 2//2 1//2 4//2 3//2
f 6//3 2//3 3//3 7//3
f 1//4 5//4 8//4 4//4
f 8//5 7//5 3//5 4//5
f 1//6 2//6 6//6 5//6
f 13//7 14//7 15//7 16//7
f 10//8 9//8 12//8 11//8
f 14//9 10//9 11//9 15//9
f 9//10 13//10 16//10 12//10
f 16//11 15//11 11//11 12//11
f 9//12 10//12 14//12 13//12
f 21//13 22//13 23//13 24//13
f 18//14 17//14 20//14 19//14
f 22//15 18//15 19//15 23//15
f 17//16 21//16 24//16 20//16
f 24//17 23//17 19//17 20//17
f 17//18 18//18 22//18 21//18
f 29//19 30//19 31//19 32//19
f 26//20 25//20 28//20 27//20
f 30//21 26//21 27//21 31//21
f 25//22 29//22 32//22 28//22
f 32//23 31//23 27//23 28//23
f 25//24 26//24 30//24 29//24
f 37//25 38//25 39//25 40//25
f 34//26 33//26 36//26 35//26
f 38//27 34//27 35//27 39//27
f 33//28 37//28 40//28 36//28
f 40//29 39//29 35//29 36//29
f 33//30 34//30 38//30 37//30
