# Dwarven Stronghold Asset: hammer
# Generated by dwarven_stronghold_gen.py
# Vertices: 16, Faces: 12

o hammer

v -0.100000 0.025000 -0.075000
v 0.100000 0.025000 -0.075000
v 0.100000 0.175000 -0.075000
v -0.100000 0.175000 -0.075000
v -0.100000 0.025000 0.075000
v 0.100000 0.025000 0.075000
v 0.100000 0.175000 0.075000
v -0.100000 0.175000 0.075000
v 0.050000 0.055000 -0.025000
v 0.450000 0.055000 -0.025000
v 0.450000 0.105000 -0.025000
v 0.050000 0.105000 -0.025000
v 0.050000 0.055000 0.025000
v 0.450000 0.055000 0.025000
v 0.450000 0.105000 0.025000
v 0.050000 0.105000 0.025000

vn 0.000000 0.000000 1.000000
vn 0.000000 0.000000 -1.000000
vn 1.000000 0.000000 0.000000
vn -1.000000 0.000000 0.000000
vn 0.000000 1.000000 0.000000
vn 0.000000 -1.000000 0.000000
vn 0.000000 0.000000 1.000000
vn 0.000000 0.000000 -1.000000
vn 1.000000 0.000000 0.000000
vn -1.000000 0.000000 0.000000
vn 0.000000 1.000000 0.000000
vn 0.000000 -1.000000 0.000000

f 5//1 6//1 7//1 8//1
f 2//2 1//2 4//2 3//2
f 6//3 2//3 3//3 7//3
f 1//4 5//4 8//4 4//4
f 8//5 7//5 3//5 4//5
f 1//6 2//6 6//6 5//6
f 13//7 14//7 15//7 16//7
f 10//8 9//8 12//8 11//8
f 14//9 10//9 11//9 15//9
f 9//10 13//10 16//10 12//10
f 16//11 15//11 11//11 12//11
f 9//12 10//12 14//12 13//12
